<svg width="80" height="80" viewBox="0 0 80 80" fill="none" xmlns="http://www.w3.org/2000/svg">
<path d="M4.37306 32.6376C4.43915 32.1702 4.63161 31.8088 4.95045 31.5533C5.26929 31.2978 5.6813 31.2116 6.1865 31.2948L6.63644 31.3689C7.13374 31.4508 7.51336 31.6795 7.77529 32.055C8.0361 32.4384 8.11947 32.9627 8.02539 33.6281L7.7213 35.7787L8.50277 35.9074C8.76327 35.9503 8.99101 35.9392 9.186 35.874C9.38777 35.8181 9.55677 35.6798 9.69298 35.459C9.82808 35.2462 9.92699 34.918 9.98971 34.4744L10.2686 32.502L10.8251 32.5937C10.8333 32.8787 10.8313 33.2067 10.8193 33.5776C10.8061 33.9564 10.7642 34.3953 10.6937 34.8943C10.6288 35.4105 10.5051 35.8278 10.3228 36.1463C10.1404 36.4649 9.89201 36.6793 9.57754 36.7896C9.26985 36.9092 8.88314 36.9306 8.41741 36.8539L3.95354 36.1188L4.05602 35.394L4.80349 35.3347C4.7764 35.2978 4.73514 35.1897 4.67972 35.0104C4.62319 34.8389 4.56153 34.618 4.49475 34.3477C4.43475 34.0865 4.38995 33.8035 4.36035 33.4987C4.32962 33.2019 4.33386 32.9148 4.37306 32.6376ZM5.01621 33.1447C4.98816 33.286 4.98099 33.451 4.99469 33.6397C5.0084 33.8284 5.0255 34.0217 5.04598 34.2196C5.07435 34.4188 5.10497 34.6022 5.13782 34.7697C5.16956 34.9451 5.19788 35.0876 5.22279 35.1971C5.2477 35.3065 5.25959 35.3652 5.25847 35.3732L7.24768 35.7007L7.43864 33.7504C7.4867 33.2962 7.42211 32.9533 7.24487 32.7214C7.06651 32.4975 6.81552 32.3589 6.49188 32.3056L6.2077 32.2588C5.95511 32.2172 5.74259 32.2349 5.57016 32.3119C5.4045 32.3981 5.27889 32.5152 5.19334 32.6632C5.10667 32.8192 5.04763 32.9797 5.01621 33.1447Z" fill="#D2AC47"/>
<path d="M4.1255 43.335C4.09759 42.968 4.13798 42.6553 4.24667 42.3967C4.36333 42.1374 4.56423 41.9309 4.84936 41.7771C5.14247 41.6227 5.54402 41.5229 6.05403 41.4777L13.1303 40.8508L13.2022 41.796L6.24546 42.4124C5.86296 42.4462 5.57483 42.5079 5.38107 42.5974C5.19528 42.6861 5.0677 42.8018 4.99833 42.9445C4.93692 43.0864 4.90125 43.2502 4.8913 43.4358L4.86873 44.0883L4.1874 44.1486L4.1255 43.335Z" fill="#D2AC47"/>
<path d="M5.95941 51.9502C5.82519 51.5061 5.75244 51.0996 5.74118 50.7308C5.73223 50.3696 5.80739 50.0381 5.96667 49.7364C6.12595 49.4346 6.38936 49.1597 6.75692 48.9118C7.13202 48.6611 7.63274 48.4256 8.25908 48.2052C8.89297 47.9821 9.42609 47.8538 9.85844 47.8202C10.2983 47.784 10.6613 47.8384 10.9472 47.9835C11.2407 48.1259 11.4787 48.3471 11.6612 48.6472C11.8536 48.9523 12.0169 49.3269 12.1511 49.7711C12.2853 50.2153 12.3569 50.6179 12.3659 50.9791C12.3772 51.3479 12.3031 51.6832 12.1439 51.985C11.9921 52.2841 11.7287 52.5589 11.3536 52.8095C10.9884 53.0652 10.4926 53.3032 9.86624 53.5237C9.23235 53.7467 8.6943 53.8726 8.25209 53.9011C7.81974 53.9347 7.45682 53.8802 7.16332 53.7378C6.87968 53.6004 6.64168 53.3792 6.4493 53.0741C6.25692 52.769 6.09362 52.3944 5.95941 51.9502ZM6.69517 51.6913C6.78079 51.9746 6.88241 52.2142 7.00003 52.41C7.11996 52.6135 7.28115 52.7602 7.48359 52.8499C7.68603 52.9396 7.95729 52.967 8.29738 52.932C8.63746 52.8971 9.06785 52.7879 9.58855 52.6047C10.1168 52.4188 10.524 52.2331 10.8103 52.0476C11.0965 51.8621 11.2969 51.6688 11.4114 51.4675C11.5259 51.2662 11.576 51.0453 11.5618 50.8046C11.5498 50.5716 11.501 50.3134 11.4154 50.03C11.3274 49.739 11.2247 49.4956 11.107 49.2998C10.9894 49.104 10.8294 48.9612 10.6269 48.8714C10.4245 48.7817 10.157 48.753 9.82448 48.7853C9.49194 48.8176 9.06155 48.9267 8.53331 49.1126C8.01261 49.2959 7.60537 49.4816 7.31156 49.6697C7.01776 49.8578 6.81361 50.0525 6.6991 50.2538C6.5846 50.4551 6.53333 50.6722 6.54531 50.9053C6.55728 51.1383 6.60723 51.4003 6.69517 51.6913Z" fill="#D2AC47"/>
<path d="M9.24728 58.9915L14.4296 55.2224L14.8237 55.8534L14.3591 56.4429C14.6948 56.5737 15.0354 56.7651 15.381 57.0171C15.7329 57.2643 16.0254 57.5745 16.2585 57.9477C16.5085 58.3481 16.6289 58.7292 16.6197 59.0911C16.6105 59.4531 16.5093 59.7882 16.3161 60.0964C16.1229 60.4047 15.871 60.6718 15.5604 60.8977L12.0376 63.4598L11.5355 62.6557L14.971 60.1571C15.1909 59.9971 15.3554 59.8084 15.4642 59.5911C15.5838 59.3758 15.6392 59.1481 15.6303 58.9079C15.6257 58.6744 15.5471 58.4356 15.3945 58.1913C15.2547 57.9674 15.1007 57.7735 14.9325 57.6096C14.775 57.4479 14.6024 57.307 14.4146 57.1871C14.2375 57.0692 14.0378 56.9529 13.8157 56.8382L9.74942 59.7956L9.24728 58.9915Z" fill="#D2AC47"/>
<path d="M35.0834 76.9298L35.7366 69.9041C35.7684 69.5616 35.8424 69.2839 35.9586 69.0712C36.0835 68.8514 36.2354 68.6868 36.4142 68.5775C36.5939 68.4601 36.7896 68.3848 37.0016 68.3514C37.2143 68.3101 37.4241 68.3006 37.6309 68.323C37.9801 68.3689 38.3571 68.4177 38.762 68.4696C39.1749 68.5224 39.5953 68.58 40.0233 68.6424C40.46 68.6977 40.8837 68.7637 41.2943 68.8404L41.2243 69.5931L37.7765 69.2198C37.4583 69.1854 37.2036 69.2463 37.0124 69.4026C36.8211 69.5589 36.7095 69.8083 36.6777 70.1508L36.4655 72.433L40.385 72.9177L40.3172 73.6466L36.3866 73.2813L36.0378 77.0331L35.0834 76.9298Z" fill="#D2AC47"/>
<path d="M44.4199 77.0406L43.5639 70.69L44.2752 70.5784L44.6495 71.649C44.8881 71.2634 45.1663 70.9323 45.4841 70.6558C45.8098 70.3779 46.2019 70.203 46.6603 70.1311C46.7709 70.1137 46.8742 70.1016 46.9701 70.0946C47.0739 70.0864 47.1709 70.0874 47.261 70.0975L47.3909 71.0608C47.286 71.0611 47.1737 71.0665 47.0541 71.0772C46.9334 71.08 46.8138 71.0907 46.6953 71.1093C46.4029 71.1552 46.1469 71.2318 45.9273 71.3391C45.7077 71.4465 45.5048 71.5876 45.3185 71.7626C45.1323 71.9375 44.9424 72.1455 44.7489 72.3863L45.3564 76.8936L44.4199 77.0406Z" fill="#D2AC47"/>
<path d="M54.748 77.1705L54.4848 74.1817C54.299 74.2551 54.0917 74.2943 53.8629 74.2994C53.6342 74.3045 53.3973 74.2433 53.1523 74.1158C52.9074 73.9882 52.6619 73.7693 52.4158 73.4588L49.2689 69.4916L50.1798 69.0888L53.1556 72.9089C53.3241 73.1052 53.4735 73.24 53.6039 73.3134C53.7416 73.3835 53.8666 73.42 53.9787 73.4228C54.0909 73.4256 54.1813 73.4162 54.25 73.3945C54.3231 73.3622 54.367 73.3428 54.3817 73.3363L53.9003 67.4436L54.7892 67.0505L55.5116 75.5357L55.4284 76.8696L54.748 77.1705Z" fill="#D2AC47"/>
<path d="M60.3891 70.889L59.9777 70.2981L60.0437 63.9424L57.0985 66.3309L56.6528 65.6908L60.4554 62.6069L60.8669 63.1977L60.7915 69.5611L63.6715 67.2255L64.1172 67.8656L60.3891 70.889Z" fill="#D2AC47"/>
<path d="M61.7165 59.3776C61.6363 59.4773 61.5494 59.4834 61.4561 59.3959L60.7732 58.7557C60.6798 58.6681 60.6733 58.5745 60.7535 58.4748L61.1824 57.942C61.2225 57.8921 61.2647 57.8715 61.309 57.8802C61.3524 57.8771 61.3945 57.8948 61.4354 57.9331L62.1182 58.5732C62.2116 58.6608 62.2207 58.7513 62.1454 58.8448L61.7165 59.3776ZM69.2152 66.5879L62.4654 60.2601L63.0599 59.5216L67.586 63.7648C68.0062 64.1587 68.3997 64.5604 68.7664 64.9698C69.1332 65.3793 69.4308 65.7348 69.6591 66.0363L69.2152 66.5879Z" fill="#D2AC47"/>
<path d="M72.3291 56.9249C72.0296 57.5265 71.706 57.9526 71.3583 58.2032C71.0141 58.4466 70.597 58.5231 70.1069 58.4328C69.6167 58.3424 69.0118 58.0885 68.292 57.6712C67.5584 57.2458 67.0249 56.8396 66.6915 56.4524C66.3546 56.0541 66.1905 55.6313 66.1991 55.1841C66.2077 54.7369 66.36 54.2161 66.6559 53.6217C66.9091 53.1132 67.1695 52.7335 67.4371 52.4826C67.7082 52.2245 68.0162 52.0986 68.361 52.1047C68.7024 52.0996 69.1084 52.2335 69.5791 52.5064C69.9043 52.695 70.1335 52.9155 70.2664 53.1679C70.396 53.4092 70.4434 53.6812 70.4086 53.9841C70.3704 54.2757 70.2675 54.5898 70.1 54.9264L69.0571 57.0212C69.5105 57.2749 69.8988 57.4354 70.222 57.5028C70.5383 57.5662 70.8193 57.5123 71.0651 57.341C71.3075 57.1586 71.5482 56.8275 71.7871 56.3476L72.7069 54.4999L73.2052 54.7889C73.0827 55.1424 72.9569 55.4847 72.8277 55.8159C72.6985 56.147 72.5323 56.5167 72.3291 56.9249ZM68.5119 56.7189L69.5281 54.6779C69.6885 54.3556 69.7508 54.0872 69.7149 53.8726C69.6757 53.6468 69.5073 53.4476 69.2097 53.2751C68.8914 53.0905 68.6207 52.9982 68.3978 52.9981C68.1715 52.9869 67.9721 53.0651 67.7995 53.2326C67.6235 53.389 67.4499 53.6391 67.2788 53.9828C67.0791 54.3839 66.9811 54.7331 66.9847 55.0305C66.9813 55.3238 67.1018 55.6014 67.3461 55.863C67.5904 56.1246 67.979 56.4099 68.5119 56.7189Z" fill="#D2AC47"/>
<path d="M75.0627 49.6961L68.8824 48.0032L69.0472 47.3023L70.1758 47.3752C69.9099 47.004 69.7093 46.6174 69.5738 46.2156C69.4402 45.806 69.4265 45.3753 69.5328 44.9237C69.5584 44.8146 69.5861 44.7144 69.6158 44.6231C69.6473 44.524 69.6847 44.4348 69.728 44.3554L70.6655 44.6122C70.6262 44.7092 70.589 44.8151 70.5538 44.9298C70.5109 45.0424 70.4757 45.1571 70.4483 45.2739C70.3805 45.562 70.3548 45.8285 70.3711 46.0734C70.3874 46.3183 70.4412 46.5609 70.5325 46.8015C70.6237 47.042 70.744 47.2987 70.8933 47.5717L75.2798 48.7733L75.0627 49.6961Z" fill="#D2AC47"/>
<path d="M76.5466 38.8948C76.5443 39.0548 76.5375 39.2507 76.5263 39.4825C76.515 39.7144 76.4995 39.9581 76.4799 40.2139C76.4604 40.4616 76.4412 40.6893 76.4223 40.897C76.3954 41.0966 76.3692 41.2522 76.3437 41.3638L75.7677 41.3543L75.8049 38.7266C75.8086 38.4626 75.7918 38.2343 75.7545 38.0416C75.7172 37.849 75.6313 37.6996 75.4968 37.5933C75.3624 37.4791 75.1593 37.4198 74.8873 37.4153L74.5993 37.4106C74.3194 37.4059 74.1021 37.4944 73.9475 37.6759C73.7849 37.8572 73.7008 38.1519 73.695 38.5598L73.6823 39.4597C73.677 39.8357 73.6243 40.1709 73.5241 40.4653C73.424 40.7517 73.2569 40.9729 73.0227 41.1291C72.7884 41.2853 72.4673 41.36 72.0594 41.3533L71.7234 41.3478C71.3235 41.3412 70.9966 41.2598 70.7428 41.1036C70.4891 40.9394 70.3006 40.6923 70.1772 40.3622C70.054 40.0241 69.9961 39.5911 70.0035 39.0632C70.0067 38.8392 70.0183 38.5834 70.0384 38.2957C70.0586 37.9999 70.0866 37.7124 70.1226 37.4329C70.1505 37.1533 70.1817 36.9258 70.2162 36.7504L70.7921 36.7598L70.7572 39.2316C70.7515 39.6396 70.815 39.9566 70.9478 40.1829C71.0808 40.4011 71.3432 40.5134 71.7351 40.5199L71.9991 40.5242C72.2471 40.5283 72.4358 40.4794 72.5652 40.3775C72.6867 40.2755 72.7687 40.1328 72.8113 39.9495C72.854 39.7582 72.8771 39.5385 72.8806 39.2905L72.8935 38.3786C72.9017 37.7947 73.0441 37.345 73.3206 37.0295C73.5971 36.714 73.9913 36.5604 74.5032 36.5689L74.9471 36.5762C75.3791 36.5833 75.7136 36.6888 75.9508 36.8927C76.18 37.0885 76.3402 37.3592 76.4314 37.7047C76.5146 38.0421 76.553 38.4388 76.5466 38.8948Z" fill="#D2AC47"/>
<path d="M75.7678 31.5353L66.9161 33.8762L66.7061 32.9517L71.8339 31.5957L71.6319 30.7063L68.7278 29.4523L68.5046 28.4694L71.8928 29.9054L74.6677 26.6906L74.8909 27.6736L72.4636 30.5236L72.6576 31.3778L75.5578 30.6108L75.7678 31.5353Z" fill="#D2AC47"/>
<path d="M65.8759 25.3776C65.9295 25.4938 65.9 25.5822 65.7873 25.6429L64.9631 26.0864C64.8503 26.147 64.7671 26.1193 64.7135 26.0031L64.4316 25.393C64.4048 25.3349 64.4039 25.2855 64.4291 25.2448C64.4438 25.2006 64.4759 25.1652 64.5252 25.1386L65.3494 24.6951C65.4622 24.6345 65.5437 24.6586 65.594 24.7675L65.8759 25.3776ZM72.583 21.9316L66.9401 24.9681L66.5425 24.1075L72.1854 21.0711L72.583 21.9316Z" fill="#D2AC47"/>
<path d="M32.3458 34.5527V33.6427L36.1538 29.9887C36.5458 29.6247 36.8538 29.2841 37.0778 28.9667C37.3111 28.6494 37.4791 28.3321 37.5818 28.0147C37.6845 27.6881 37.7358 27.3334 37.7358 26.9507C37.7358 26.6147 37.6705 26.3161 37.5398 26.0547C37.4185 25.7934 37.1991 25.5881 36.8818 25.4387C36.5645 25.2894 36.1071 25.2147 35.5098 25.2147H32.7098V24.3607C33.1391 24.3141 33.6105 24.2721 34.1238 24.2347C34.6465 24.1881 35.1878 24.1647 35.7478 24.1647C36.5318 24.1647 37.1478 24.2767 37.5958 24.5007C38.0531 24.7247 38.3751 25.0374 38.5618 25.4387C38.7485 25.8307 38.8418 26.2927 38.8418 26.8247C38.8418 27.3007 38.7765 27.7394 38.6458 28.1407C38.5245 28.5421 38.3285 28.9341 38.0578 29.3167C37.7871 29.6994 37.4371 30.0961 37.0078 30.5067L33.8578 33.5307H39.2198V34.5527H32.3458ZM43.5146 34.5807C43.02 34.5807 42.5766 34.4967 42.1846 34.3287C41.802 34.1514 41.4986 33.8854 41.2746 33.5307C41.06 33.1667 40.9526 32.7001 40.9526 32.1307V26.6707C40.9526 26.1201 41.06 25.6627 41.2746 25.2987C41.4986 24.9254 41.802 24.6454 42.1846 24.4587C42.5766 24.2627 43.02 24.1647 43.5146 24.1647H45.5166C46.0953 24.1647 46.5666 24.2721 46.9306 24.4867C47.2946 24.6921 47.5606 24.9814 47.7286 25.3547C47.906 25.7281 47.9946 26.1667 47.9946 26.6707V32.1307C47.9946 32.9801 47.766 33.6007 47.3086 33.9927C46.8606 34.3847 46.2633 34.5807 45.5166 34.5807H43.5146ZM43.7246 33.5867H45.2646C45.834 33.5867 46.2446 33.4467 46.4966 33.1667C46.7486 32.8774 46.8746 32.4854 46.8746 31.9907V26.7547C46.8746 26.2227 46.7393 25.8261 46.4686 25.5647C46.2073 25.3034 45.82 25.1727 45.3066 25.1727H43.6966C43.1926 25.1727 42.796 25.3127 42.5066 25.5927C42.2173 25.8634 42.0726 26.2507 42.0726 26.7547V31.9907C42.0726 32.5227 42.2173 32.9241 42.5066 33.1947C42.8053 33.4561 43.2113 33.5867 43.7246 33.5867ZM32.3458 53.5527V52.6427L36.1538 48.9887C36.5458 48.6247 36.8538 48.2841 37.0778 47.9667C37.3111 47.6494 37.4791 47.3321 37.5818 47.0147C37.6845 46.6881 37.7358 46.3334 37.7358 45.9507C37.7358 45.6147 37.6705 45.3161 37.5398 45.0547C37.4185 44.7934 37.1991 44.5881 36.8818 44.4387C36.5645 44.2894 36.1071 44.2147 35.5098 44.2147H32.7098V43.3607C33.1391 43.3141 33.6105 43.2721 34.1238 43.2347C34.6465 43.1881 35.1878 43.1647 35.7478 43.1647C36.5318 43.1647 37.1478 43.2767 37.5958 43.5007C38.0531 43.7247 38.3751 44.0374 38.5618 44.4387C38.7485 44.8307 38.8418 45.2927 38.8418 45.8247C38.8418 46.3007 38.7765 46.7394 38.6458 47.1407C38.5245 47.5421 38.3285 47.9341 38.0578 48.3167C37.7871 48.6994 37.4371 49.0961 37.0078 49.5067L33.8578 52.5307H39.2198V53.5527H32.3458ZM43.5146 53.5807C43.02 53.5807 42.5766 53.4967 42.1846 53.3287C41.802 53.1514 41.4986 52.8854 41.2746 52.5307C41.06 52.1667 40.9526 51.7001 40.9526 51.1307V45.6707C40.9526 45.1201 41.06 44.6627 41.2746 44.2987C41.4986 43.9254 41.802 43.6454 42.1846 43.4587C42.5766 43.2627 43.02 43.1647 43.5146 43.1647H45.5166C46.0953 43.1647 46.5666 43.2721 46.9306 43.4867C47.2946 43.6921 47.5606 43.9814 47.7286 44.3547C47.906 44.7281 47.9946 45.1667 47.9946 45.6707V51.1307C47.9946 51.9801 47.766 52.6007 47.3086 52.9927C46.8606 53.3847 46.2633 53.5807 45.5166 53.5807H43.5146ZM43.7246 52.5867H45.2646C45.834 52.5867 46.2446 52.4467 46.4966 52.1667C46.7486 51.8774 46.8746 51.4854 46.8746 50.9907V45.7547C46.8746 45.2227 46.7393 44.8261 46.4686 44.5647C46.2073 44.3034 45.82 44.1727 45.3066 44.1727H43.6966C43.1926 44.1727 42.796 44.3127 42.5066 44.5927C42.2173 44.8634 42.0726 45.2507 42.0726 45.7547V50.9907C42.0726 51.5227 42.2173 51.9241 42.5066 52.1947C42.8053 52.4561 43.2113 52.5867 43.7246 52.5867Z" fill="#D2AC47"/>
<path d="M64.4182 39.6963C64.4182 53.3213 53.6213 64.3472 40.3261 64.3472C27.031 64.3472 16.2341 53.3213 16.2341 39.6963C16.2341 26.0714 27.031 15.0454 40.3261 15.0454C53.6213 15.0454 64.4182 26.0714 64.4182 39.6963Z" stroke="#D2AC47"/>
<path d="M6.84908 23.9343C6.91608 23.7716 7.004 23.579 7.11284 23.3566C7.21142 23.1381 7.32025 22.9157 7.43935 22.6893C7.55123 22.4595 7.66215 22.2425 7.77211 22.0384C7.87903 21.8416 7.97584 21.6799 8.06256 21.5532L8.72261 21.8697C8.63205 22.0477 8.52474 22.2664 8.40067 22.5258C8.27661 22.7852 8.14853 23.0648 8.01646 23.3646C7.88133 23.6719 7.75286 23.9735 7.63104 24.2694C7.494 24.6023 7.40312 24.9174 7.3584 25.2149C7.31369 25.5123 7.34592 25.7802 7.45509 26.0186C7.56122 26.2643 7.77659 26.465 8.1012 26.6207L8.64223 26.8801C9.01013 27.0565 9.32744 27.0935 9.59418 26.9911C9.86813 26.8921 10.0934 26.6281 10.2701 26.199L10.631 25.3224C10.9081 24.6492 11.2701 24.1895 11.717 23.9432C12.1609 23.7042 12.7363 23.7542 13.4432 24.0932L13.8977 24.3111C14.6479 24.6708 15.0965 25.1339 15.2433 25.7004C15.3902 26.2668 15.3083 26.9273 14.9976 27.6819C14.9002 27.9186 14.7761 28.178 14.6254 28.4601C14.482 28.7456 14.3359 29.0166 14.1871 29.273C14.0425 29.5403 13.9141 29.7577 13.8019 29.9254L13.1419 29.6089C13.3047 29.2972 13.4823 28.9395 13.6745 28.5356C13.8636 28.1391 14.0328 27.7596 14.182 27.3971C14.3191 27.0642 14.3982 26.7567 14.4193 26.4745C14.4477 26.1958 14.3919 25.9432 14.2519 25.7166C14.1161 25.5009 13.8715 25.3084 13.5181 25.1389L13.1502 24.9625C12.7101 24.7515 12.3584 24.7246 12.095 24.8818C11.8317 25.0389 11.6132 25.3284 11.4396 25.75L11.0513 26.6932C10.8655 27.1445 10.6339 27.4763 10.3564 27.6887C10.079 27.9011 9.77063 28.0102 9.43143 28.0158C9.09944 28.025 8.75311 27.9431 8.39243 27.7701L7.77566 27.4744C7.24185 27.2184 6.8794 26.9029 6.68831 26.5279C6.49417 26.1602 6.4237 25.7544 6.47691 25.3104C6.52707 24.8738 6.65113 24.4151 6.84908 23.9343Z" fill="#D2AC47"/>
<circle cx="40" cy="40" r="39.5" stroke="#D2AC47"/>
</svg>
