<svg width="148" height="94" viewBox="0 0 148 94" fill="none" xmlns="http://www.w3.org/2000/svg">
<g clip-path="url(#clip0_103_47)" filter="url(#filter0_d_103_47)">
<path d="M83.161 23.3816L82.8569 22.8293L80.7352 22.4062L81.7988 20.919L81.599 20.5569C79.5079 17.054 76.9508 13.8764 73.9995 11.131C66.5673 4.21593 56.7056 -1.36966e-05 45.8849 -1.36966e-05C22.7515 -1.36966e-05 4 19.2525 4 43C4 66.7493 22.7515 86 45.8849 86C56.7056 86 66.5673 81.7859 73.9995 74.8708C82.4574 67.0024 87.7679 55.6404 87.7679 43C87.7679 35.9334 86.1033 29.264 83.161 23.3816Z" fill="#CC0000"/>
<path d="M102.117 0.000852151C91.2966 0.000852151 81.4332 4.21495 74.001 11.1319C76.9505 13.8754 79.5076 17.0531 81.5987 20.5577L81.8003 20.918L80.7349 22.407L82.8566 22.8283L83.1608 23.3825C86.103 29.2649 87.7694 35.9324 87.7694 42.999C87.7694 55.6394 82.4571 67.0033 74.001 74.8698C81.4332 81.7868 91.2966 85.999 102.117 85.999C125.249 85.999 144 66.7483 144 42.999C144 19.2534 125.249 0.000852151 102.117 0.000852151Z" fill="#FF9900"/>
<path d="M29.3126 38.6636H34.4773L30.4463 60.4639H25.2852L29.3126 38.6636Z" fill="#000066"/>
<path d="M13.8154 38.6636H27.2221L26.4537 42.7872H18.2027L17.3749 47.2858H25.3254L24.5948 51.4075H16.6173L15.7085 56.344H23.9541L23.1929 60.4639H9.78613L13.8154 38.6636Z" fill="#000066"/>
<path d="M44.3081 49.5245C44.3351 49.1513 44.3495 48.8594 44.3495 48.6266C44.3495 47.1745 43.4929 46.3228 42.0353 46.3228C40.4786 46.3228 39.3647 47.4645 38.913 49.5245H44.3081ZM46.8941 60.1659C45.2169 60.6573 43.6153 60.892 41.9003 60.8901C36.4296 60.8864 33.5791 58.1448 33.5791 52.8869C33.5791 46.7532 37.207 42.238 42.1306 42.238C46.1599 42.238 48.807 44.769 48.807 48.7319C48.807 50.0491 48.6307 51.3331 48.206 53.1455H38.4019C38.3641 53.4208 38.3533 53.5409 38.3533 53.7053C38.3533 55.7782 39.8056 56.8331 42.6453 56.8331C44.3945 56.8331 45.9745 56.4857 47.7309 55.7024L46.8941 60.1659Z" fill="#000066"/>
<path d="M101.704 50.2085C101.704 45.7228 99.0334 42.2311 94.0036 42.2311C88.2072 42.2311 84.4551 46.4766 84.4551 52.7433C84.4551 57.2271 86.6703 60.8906 92.1572 60.8906C97.6999 60.8906 101.704 57.6372 101.704 50.2085ZM96.4186 50.1402C96.4186 54.1806 94.9105 56.5805 92.5261 56.5805C90.7931 56.61 89.7404 55.0027 89.7404 52.6084C89.7404 49.7614 91.2736 46.545 93.748 46.545C95.7383 46.545 96.4186 48.2908 96.4186 50.1402" fill="#000066"/>
<path d="M103.779 47.3107C104.049 45.7718 104.29 44.2698 104.449 42.6606H109.241L108.813 45.5667H108.87C110.366 43.5844 111.908 42.2542 114.606 42.2542C117.584 42.2542 119.175 44.9663 119.14 48.4506C119.13 49.6478 118.995 50.4995 118.673 52.1585L117.15 60.4629H111.987L113.511 52.1271C113.679 51.2052 113.846 50.3517 113.853 49.4279C113.864 48.3693 113.308 47.3107 111.89 47.3772C109.732 47.3772 108.433 49.633 108.042 52.2638L106.516 60.4629H101.354L103.779 47.3107Z" fill="#000066"/>
<path d="M122.358 42.6611H127.521L124.242 60.4634H119.081L122.358 42.6611Z" fill="#000066"/>
<path d="M60.9784 60.1997C59.9562 60.6099 58.5921 60.8833 56.6036 60.8833C52.2829 60.8833 49.6123 57.2216 49.6123 52.7359C49.6123 46.8794 53.4778 42.2219 59.1608 42.2219C60.4115 42.2219 62.3154 42.669 63.8217 43.421L62.8985 47.7773C61.8637 47.1215 60.5537 46.7446 59.4163 46.7446C56.7746 46.7446 54.8958 48.799 54.8958 52.4958C54.8958 54.6185 56.2617 56.3625 58.4212 56.3625C59.7007 56.3625 60.6094 56.126 61.7198 55.5773L60.9784 60.1997Z" fill="#000066"/>
<path d="M138.655 60.1997C137.633 60.6099 136.267 60.8833 134.277 60.8833C129.958 60.8833 127.287 57.2216 127.287 52.7359C127.287 46.8794 131.151 42.2219 136.837 42.2219C138.086 42.2219 139.99 42.669 141.496 43.421L140.571 47.7773C139.537 47.1215 138.228 46.7446 137.091 46.7446C134.448 46.7446 132.571 48.799 132.571 52.4958C132.571 54.6185 133.938 56.3625 136.096 56.3625C137.375 56.3625 138.284 56.126 139.393 55.5773L138.655 60.1997Z" fill="#000066"/>
<path d="M75.7171 42.6611C75.0602 48.1666 73.8977 53.7497 72.9871 59.2662L72.7676 60.4634H77.9917C79.8741 49.8127 80.5075 46.7791 84.4522 47.847L86.3489 42.8052C83.5992 41.7688 81.8266 43.2486 80.2214 45.3529C80.3689 44.407 80.6389 43.4925 80.5759 42.6611H75.7171Z" fill="#000066"/>
<path d="M71.8595 56.4967C69.7144 56.8145 68.7318 56.1974 68.7318 55.0002C68.7318 54.1467 68.9298 53.2581 69.1565 51.9242L70.0365 46.9693H72.7395L73.5295 42.6609H70.8589L71.6291 38.4062H66.4662L63.9846 51.9574C63.6445 53.84 63.5293 54.7287 63.5293 55.6173C63.5293 59.3418 65.696 60.8789 68.3053 60.8789C69.2069 60.8789 70.1553 60.7625 71.1073 60.5962L71.8595 56.4967Z" fill="#000066"/>
<path d="M49.3724 34.4267H46.5488L46.6136 33.0485C45.7516 34.1366 44.6017 34.6558 43.0397 34.6558C41.1933 34.6558 39.9229 33.1778 39.9229 31.0236C39.9229 27.7868 42.1291 25.8987 45.91 25.8987C46.2987 25.8987 46.7918 25.9338 47.3011 26.0003C47.4054 25.5606 47.4342 25.374 47.4342 25.1376C47.4342 24.2563 46.8404 23.9275 45.2478 23.9275C43.5796 23.9108 42.2047 24.3376 41.6378 24.5242C41.6738 24.3044 42.1111 21.535 42.1111 21.535C43.8117 21.0232 44.9292 20.8329 46.1907 20.8329C49.1186 20.8329 50.6699 22.1798 50.6663 24.7293C50.6716 25.4147 50.5619 26.2571 50.3909 27.3656C50.0958 29.2907 49.4587 33.4216 49.3724 34.4267ZM46.8926 28.5C46.5363 28.4593 46.3779 28.4464 46.1331 28.4464C44.2004 28.4464 43.2233 29.1263 43.2233 30.4712C43.2233 31.3007 43.6983 31.8254 44.4434 31.8254C45.8326 31.8254 46.8332 30.4675 46.8926 28.5Z" fill="#000066"/>
<path d="M38.4984 34.4268H35.0883L37.0444 21.8584L32.6822 34.4268H30.359L30.0729 21.9286L28.0178 34.4268H24.8271L27.4941 18.0747H32.3961L32.693 27.2271L35.6839 18.0747H41.1348L38.4984 34.4268Z" fill="#000066"/>
<path d="M103.081 34.4267H100.252L100.319 33.0485C99.457 34.1366 98.3089 34.6558 96.7469 34.6558C94.8969 34.6558 93.6318 33.1778 93.6318 31.0236C93.6318 27.7868 95.8345 25.8987 99.6172 25.8987C100.002 25.8987 100.499 25.9338 101.006 26.0003C101.111 25.5606 101.14 25.374 101.14 25.1376C101.14 24.2563 100.548 23.9275 98.9549 23.9275C97.2868 23.9108 95.9083 24.3376 95.3414 24.5242C95.381 24.3044 95.8201 21.535 95.8201 21.535C97.5171 21.0232 98.64 20.8329 99.8979 20.8329C102.828 20.8329 104.375 22.1798 104.372 24.7293C104.381 25.4147 104.269 26.2571 104.098 27.3656C103.801 29.2907 103.166 33.4216 103.081 34.4267ZM100.598 28.5C100.24 28.4593 100.085 28.4464 99.8403 28.4464C97.9058 28.4464 96.9304 29.1263 96.9304 30.4712C96.9304 31.3007 97.4037 31.8254 98.1505 31.8254C99.538 31.8254 100.539 30.4675 100.598 28.5" fill="#000066"/>
<path d="M64.5238 34.2238C63.5917 34.5268 62.8628 34.6543 62.0746 34.6543C60.3309 34.6543 59.3825 33.6289 59.3825 31.7353C59.3573 31.1459 59.6308 29.6014 59.8486 28.19C60.0465 26.9485 61.3278 19.1152 61.3278 19.1152H64.7164L64.3205 21.1289H66.3666L65.9059 24.3232H63.8508C63.4567 26.8543 62.8952 30.0024 62.8898 30.4199C62.8898 31.1071 63.2461 31.4064 64.0577 31.4064C64.4465 31.4064 64.7452 31.3639 64.9773 31.2808L64.5238 34.2238Z" fill="#000066"/>
<path d="M73.0091 26.2334C73.0307 25.9563 73.369 23.8594 71.4326 23.8594C70.3547 23.8594 69.5809 24.7037 69.2696 26.2334H73.0091ZM74.9148 34.1166C73.7487 34.4805 72.6294 34.6597 71.438 34.6542C67.6446 34.6523 65.665 32.6183 65.665 28.7219C65.665 24.179 68.1808 20.8332 71.5964 20.8332C74.3911 20.8332 76.1745 22.7047 76.1745 25.6403C76.1745 26.6195 76.0539 27.5709 75.757 28.9141H69.0086C68.7801 30.8428 69.984 31.6465 71.9563 31.6465C73.1674 31.6465 74.2616 31.3897 75.4781 30.8096L74.9148 34.1166V34.1166Z" fill="#000066"/>
<path d="M51.4182 25.3324C51.4182 27.0155 52.2136 28.1738 54.015 29.0458C55.3935 29.7109 55.6076 29.9086 55.6076 30.5127C55.6076 31.3404 54.9994 31.7155 53.6515 31.7155C52.6329 31.7155 51.6882 31.5529 50.5958 31.1908C50.5958 31.1908 50.1495 34.1246 50.1279 34.2631C50.9035 34.4349 51.5928 34.5957 53.6749 34.6548C57.2722 34.6548 58.9332 33.2507 58.9332 30.2116C58.9332 28.3845 58.2386 27.3111 56.5308 26.5037C55.1019 25.8312 54.9364 25.6797 54.9364 25.0608C54.9364 24.3422 55.505 23.9745 56.6046 23.9745C57.274 23.9745 58.1882 24.0466 59.0556 24.1741L59.5415 21.0888C58.6561 20.9447 57.319 20.832 56.5398 20.832C52.7265 20.832 51.4074 22.8753 51.4182 25.3324Z" fill="#000066"/>
<path d="M91.4938 21.1825C92.4404 21.1825 93.3257 21.4338 94.5404 22.0656L95.1001 18.5147C94.598 18.3152 92.8417 17.1328 91.3534 17.1328C89.0698 17.1328 87.1406 18.2967 85.7856 20.2107C83.806 19.5382 82.9926 20.898 81.9957 22.254L81.1103 22.4647C81.1769 22.0213 81.2381 21.576 81.2183 21.1289H78.0852C77.6587 25.2451 76.9029 29.4149 76.3073 33.5329L76.1543 34.4271H79.5627C80.1313 30.6286 80.4445 28.1992 80.6316 26.5513L81.9165 25.8215C82.1091 25.0862 82.7101 24.8405 83.914 24.8719C83.7575 25.7384 83.6711 26.651 83.6711 27.5969C83.6711 31.9477 85.9637 34.6543 89.6294 34.6543C90.576 34.6543 91.3876 34.5287 92.6455 34.1776L93.2412 30.4513C92.1146 31.0203 91.1861 31.29 90.3457 31.29C88.3643 31.29 87.1658 29.7862 87.1658 27.305C87.1658 23.7043 88.9474 21.1825 91.4938 21.1825Z" fill="#000066"/>
<path d="M116.093 31.3547C114.936 31.3547 114.345 30.4716 114.345 28.7313C114.345 26.1208 115.447 24.2659 116.991 24.2659C118.162 24.2659 118.798 25.1804 118.798 26.8709C118.798 29.5072 117.678 31.3547 116.093 31.3547ZM120.358 18.075L119.6 22.799C118.668 21.5391 117.669 20.6264 116.345 20.6264C114.626 20.6264 113.061 21.9658 112.033 23.9389C110.604 23.6323 109.132 23.1168 109.132 23.1168V23.1279C109.245 22.0286 109.292 21.358 109.281 21.1289H106.15C105.726 25.2451 104.964 29.413 104.372 33.5329L104.214 34.4271H107.628C108.087 31.3584 108.439 28.807 108.698 26.784C109.864 25.7033 110.446 24.7611 111.623 24.8239C111.104 26.1208 110.8 27.608 110.8 29.1377C110.8 32.4613 112.436 34.6543 114.916 34.6543C116.163 34.6543 117.122 34.2146 118.056 33.1892L117.9 34.4252H121.121L123.719 18.075H120.358V18.075Z" fill="#000066"/>
<path d="M39.48 33.4556H36.0717L38.026 20.8872L33.6638 33.4556H31.3406L31.0527 20.9592L28.9994 33.4556H25.8105L28.4757 17.1073H33.3777L33.5145 27.2277L36.8221 17.1073H42.1182L39.48 33.4556Z" fill="white"/>
<path d="M50.3549 33.4556H47.5314L47.5944 32.0811C46.7342 33.1674 45.5825 33.6865 44.0223 33.6865C42.1741 33.6865 40.9072 32.2048 40.9072 30.0525C40.9072 26.8139 43.1099 24.9276 46.8944 24.9276C47.2795 24.9276 47.7744 24.9664 48.2836 25.0311C48.3898 24.5914 48.4168 24.4048 48.4168 24.1665C48.4168 23.2852 47.823 22.9601 46.2285 22.9601C44.5621 22.9398 43.1855 23.3647 42.6204 23.5568C42.6564 23.3351 43.0937 20.5657 43.0937 20.5657C44.7925 20.0522 45.9136 19.86 47.1733 19.86C50.0994 19.86 51.6524 21.2105 51.6488 23.76C51.6542 24.4436 51.5445 25.2897 51.3717 26.3945C51.0766 28.3196 50.4413 32.4524 50.3549 33.4556ZM47.8751 27.5326C47.517 27.4882 47.3587 27.4772 47.1157 27.4772C45.183 27.4772 44.204 28.1589 44.204 29.5001C44.204 30.3278 44.6809 30.858 45.4277 30.858C46.8152 30.858 47.8158 29.5001 47.8751 27.5326" fill="white"/>
<path d="M96.0771 17.5451L95.521 21.096C94.3063 20.466 93.4228 20.211 92.4744 20.211C89.9316 20.211 88.1446 22.7384 88.1446 26.3373C88.1446 28.8203 89.3449 30.3204 91.3281 30.3204C92.1685 30.3204 93.0952 30.0525 94.2236 29.4817L93.6225 33.208C92.3682 33.559 91.5566 33.6865 90.61 33.6865C86.9407 33.6865 84.6553 30.9781 84.6553 26.6273C84.6553 20.7801 87.8153 16.6971 92.334 16.6971C93.8223 16.6971 95.5804 17.3437 96.0771 17.5451" fill="white"/>
<path d="M104.062 33.4556H101.237L101.299 32.0811C100.437 33.1674 99.2894 33.6865 97.7274 33.6865C95.8792 33.6865 94.6123 32.2048 94.6123 30.0525C94.6123 26.8139 96.815 24.9276 100.598 24.9276C100.986 24.9276 101.479 24.9664 101.987 25.0311C102.091 24.5914 102.12 24.4048 102.12 24.1665C102.12 23.2852 101.528 22.9601 99.9354 22.9601C98.2672 22.9398 96.8924 23.3647 96.3255 23.5568C96.3615 23.3351 96.8006 20.5657 96.8006 20.5657C98.4976 20.0522 99.6169 19.86 100.878 19.86C103.804 19.86 105.356 21.2105 105.352 23.76C105.361 24.4436 105.25 25.2897 105.079 26.3945C104.782 28.3196 104.146 32.4524 104.062 33.4556ZM101.578 27.5326C101.222 27.4882 101.066 27.4772 100.821 27.4772C98.8899 27.4772 97.9109 28.1589 97.9109 29.5001C97.9109 30.3278 98.386 30.858 99.131 30.858C100.518 30.858 101.523 29.5001 101.578 27.5326" fill="white"/>
<path d="M65.5059 33.2542C64.5737 33.5554 63.8449 33.6865 63.0567 33.6865C61.3165 33.6865 60.3627 32.6593 60.3627 30.7657C60.3393 30.1763 60.6129 28.6337 60.8306 27.2222C61.0268 25.9789 62.3081 18.1456 62.3081 18.1456H65.6966L65.3007 20.1593H67.0409L66.5766 23.3554H64.8329C64.4387 25.8846 63.8755 29.0346 63.8701 29.4503C63.8701 30.1375 64.2282 30.4368 65.0398 30.4368C65.4267 30.4368 65.7254 30.3962 65.9576 30.313L65.5059 33.2542Z" fill="white"/>
<path d="M73.9916 25.2625C74.0114 24.9835 74.3516 22.8885 72.4152 22.8885C71.3355 22.8885 70.5653 23.7365 70.2503 25.2625H73.9916ZM75.8974 33.1494C74.7331 33.5133 73.6065 33.6888 72.4206 33.687C68.6235 33.6833 66.6494 31.6492 66.6494 27.7548C66.6494 23.2081 69.1634 19.8605 72.5772 19.8605C75.3737 19.8605 77.1571 21.7338 77.1571 24.675C77.1571 25.6505 77.0329 26.6019 76.7396 27.945H69.9912C69.7627 29.8757 70.9648 30.6775 72.9371 30.6775C74.1482 30.6775 75.2423 30.4207 76.4624 29.8387L75.8974 33.1494Z" fill="white"/>
<path d="M52.3979 24.3628C52.3979 26.0459 53.1933 27.2042 54.9946 28.0744C56.3767 28.7413 56.5908 28.939 56.5908 29.5431C56.5908 30.3726 55.9808 30.7458 54.6329 30.7458C53.6144 30.7458 52.6678 30.5851 51.5773 30.223C51.5773 30.223 51.1292 33.1531 51.1094 33.2935C51.8832 33.4653 52.5742 33.626 54.6563 33.687C58.2536 33.687 59.9164 32.2811 59.9164 29.242C59.9164 27.413 59.22 26.3414 57.5122 25.5359C56.0834 24.8635 55.9178 24.712 55.9178 24.0912C55.9178 23.3726 56.4865 23.0031 57.5878 23.0031C58.2554 23.0031 59.1714 23.0788 60.037 23.2026L60.5229 20.1191C59.6393 19.9769 58.3022 19.8605 57.5212 19.8605C53.7079 19.8605 52.3871 21.9057 52.3979 24.3628Z" fill="white"/>
<path d="M117.074 30.3837C118.663 30.3837 119.779 28.5362 119.779 25.9036C119.779 24.215 119.141 23.2968 117.972 23.2968C116.424 23.2968 115.326 25.1461 115.326 27.764C115.326 29.5043 115.913 30.3837 117.074 30.3837ZM122.105 33.4561H118.881L119.041 32.2183C118.103 33.2436 117.148 33.687 115.893 33.687C113.419 33.687 111.781 31.4941 111.781 28.1686C111.781 23.7457 114.32 20.0175 117.328 20.0175C118.65 20.0175 119.651 20.5699 120.581 21.8299L121.335 17.1059H124.702L122.105 33.4561V33.4561Z" fill="white"/>
<path d="M107.129 20.1588C106.706 24.275 105.949 28.4447 105.353 32.5627L105.198 33.4551H108.608C109.829 25.3243 110.122 23.7355 112.035 23.935C112.339 22.2705 112.906 20.8128 113.327 20.0794C111.903 19.7727 111.104 20.6022 110.059 22.1744C110.14 21.4945 110.293 20.8331 110.262 20.1588H107.129Z" fill="white"/>
<path d="M79.0683 20.1588C78.6382 24.275 77.8824 28.4447 77.2868 32.5627L77.1338 33.4551H80.544C81.7641 25.3243 82.0574 23.7355 83.9667 23.935C84.2727 22.2705 84.8431 20.8128 85.2642 20.0794C83.8372 19.7727 83.0382 20.6022 81.9944 22.1744C82.0772 21.4945 82.2284 20.8331 82.1996 20.1588H79.0683Z" fill="white"/>
<path d="M124.477 32.3531H124.594C124.637 32.3531 124.684 32.3568 124.722 32.3365C124.754 32.3143 124.774 32.2681 124.774 32.2293C124.774 32.1942 124.751 32.1554 124.725 32.137C124.688 32.1148 124.63 32.1203 124.589 32.1203H124.477V32.3531ZM124.477 32.8704H124.272V31.9578H124.648C124.727 31.9578 124.805 31.9596 124.877 32.0039C124.947 32.052 124.988 32.1407 124.988 32.2312C124.988 32.3365 124.931 32.4326 124.835 32.4677L124.999 32.8704H124.769L124.632 32.5083H124.477V32.8704V32.8704ZM124.614 33.2066C125.042 33.2066 125.388 32.8519 125.388 32.4141C125.388 31.9781 125.042 31.6234 124.614 31.6234C124.189 31.6234 123.844 31.9781 123.844 32.4141C123.844 32.8519 124.189 33.2066 124.614 33.2066M123.603 32.4141C123.603 31.8377 124.056 31.3739 124.614 31.3739C125.179 31.3739 125.629 31.8377 125.629 32.4141C125.629 32.9886 125.179 33.4561 124.614 33.4561C124.056 33.4561 123.603 32.9886 123.603 32.4141" fill="white"/>
<path d="M137.961 68.8224H137.412V68.5157H138.836V68.8224H138.288V70.3447H137.961V68.8224Z" fill="#FF9900"/>
<path d="M139.254 68.5152H139.761L140.226 69.7512L140.685 68.5152H141.192V70.3442H140.865V68.9457H140.857L140.357 70.3442H140.091L139.589 68.9457H139.581V70.3442H139.254V68.5152Z" fill="#FF9900"/>
</g>
<defs>
<filter id="filter0_d_103_47" x="0" y="0" width="148" height="94" filterUnits="userSpaceOnUse" color-interpolation-filters="sRGB">
<feFlood flood-opacity="0" result="BackgroundImageFix"/>
<feColorMatrix in="SourceAlpha" type="matrix" values="0 0 0 0 0 0 0 0 0 0 0 0 0 0 0 0 0 0 127 0" result="hardAlpha"/>
<feOffset dy="4"/>
<feGaussianBlur stdDeviation="2"/>
<feComposite in2="hardAlpha" operator="out"/>
<feColorMatrix type="matrix" values="0 0 0 0 0 0 0 0 0 0 0 0 0 0 0 0 0 0 0.25 0"/>
<feBlend mode="normal" in2="BackgroundImageFix" result="effect1_dropShadow_103_47"/>
<feBlend mode="normal" in="SourceGraphic" in2="effect1_dropShadow_103_47" result="shape"/>
</filter>
<clipPath id="clip0_103_47">
<rect width="140" height="86" fill="white" transform="translate(4)"/>
</clipPath>
</defs>
</svg>
