<?xml version="1.0" encoding="UTF-8" standalone="no"?>
<!-- Created with Inkscape (http://www.inkscape.org/) -->

<svg
   xmlns:dc="http://purl.org/dc/elements/1.1/"
   xmlns:cc="http://creativecommons.org/ns#"
   xmlns:rdf="http://www.w3.org/1999/02/22-rdf-syntax-ns#"
   xmlns:svg="http://www.w3.org/2000/svg"
   xmlns="http://www.w3.org/2000/svg"
   xmlns:sodipodi="http://sodipodi.sourceforge.net/DTD/sodipodi-0.dtd"
   xmlns:inkscape="http://www.inkscape.org/namespaces/inkscape"
   width="282.22223mm"
   height="168.86913mm"
   viewBox="0 0 1000 598.35517"
   id="svg9304"
   version="1.1"
   inkscape:version="0.91 r13725"
   sodipodi:docname="MasterCard Electronic.svg">
  <defs
     id="defs9306" />
  <sodipodi:namedview
     id="base"
     pagecolor="#ffffff"
     bordercolor="#666666"
     borderopacity="1.0"
     inkscape:pageopacity="0.0"
     inkscape:pageshadow="2"
     inkscape:zoom="0.35"
     inkscape:cx="-283.51998"
     inkscape:cy="-185.19198"
     inkscape:document-units="px"
     inkscape:current-layer="layer1"
     showgrid="false"
     fit-margin-top="0"
     fit-margin-left="0"
     fit-margin-right="0"
     fit-margin-bottom="0"
     inkscape:window-width="1366"
     inkscape:window-height="705"
     inkscape:window-x="-8"
     inkscape:window-y="-8"
     inkscape:window-maximized="1" />
  <metadata
     id="metadata9309">
    <rdf:RDF>
      <cc:Work
         rdf:about="">
        <dc:format>image/svg+xml</dc:format>
        <dc:type
           rdf:resource="http://purl.org/dc/dcmitype/StillImage" />
        <dc:title></dc:title>
      </cc:Work>
    </rdf:RDF>
  </metadata>
  <g
     inkscape:label="Layer 1"
     inkscape:groupmode="layer"
     id="layer1"
     transform="translate(-171.37713,251.18497)">
    <g
       id="g482"
       transform="matrix(12.854032,0,0,-12.854032,736.81314,-88.504337)">
      <path
         d="m 0,0 -0.169,0.299 -1.179,0.229 0.591,0.805 -0.111,0.196 c -1.162,1.896 -2.583,3.616 -4.223,5.102 -4.13,3.743 -9.61,6.025 -15.623,6.025 -12.855,0 -23.275,-10.421 -23.275,-23.275 0,-12.855 10.42,-23.275 23.275,-23.275 6.013,0 11.493,2.281 15.623,6.024 4.7,4.259 7.651,10.409 7.651,17.251 C 2.56,-6.794 1.635,-3.184 0,0"
         style="fill:#cc0000;fill-opacity:1;fill-rule:nonzero;stroke:none"
         id="path484"
         inkscape:connector-curvature="0" />
    </g>
    <g
       id="g486"
       transform="matrix(12.854032,0,0,-12.854032,872.21238,-251.17849)">
      <path
         d="m 0,0 c -6.013,0 -11.494,-2.281 -15.624,-6.025 1.639,-1.485 3.06,-3.205 4.222,-5.102 l 0.112,-0.195 -0.592,-0.806 1.179,-0.228 0.169,-0.3 c 1.635,-3.184 2.561,-6.793 2.561,-10.618 0,-6.842 -2.952,-12.993 -7.651,-17.251 4.13,-3.744 9.611,-6.024 15.624,-6.024 12.854,0 23.274,10.42 23.274,23.275 C 23.274,-10.421 12.854,0 0,0"
         style="fill:#ff9900;fill-opacity:1;fill-rule:nonzero;stroke:none"
         id="path488"
         inkscape:connector-curvature="0" />
    </g>
    <g
       id="g490"
       transform="matrix(12.854032,0,0,-12.854032,352.18451,17.822881)">
      <path
         d="m 0,0 2.87,0 -2.24,-11.8 -2.868,0 L 0,0 Z"
         style="fill:#000066;fill-opacity:1;fill-rule:nonzero;stroke:none"
         id="path492"
         inkscape:connector-curvature="0" />
    </g>
    <g
       id="g494"
       transform="matrix(12.854032,0,0,-12.854032,241.48425,17.822881)">
      <path
         d="m 0,0 7.45,0 -0.427,-2.232 -4.585,0 -0.46,-2.435 4.418,0 -0.406,-2.231 -4.433,0 -0.505,-2.672 4.582,0 -0.423,-2.23 -7.45,0 L 0,0 Z"
         style="fill:#000066;fill-opacity:1;fill-rule:nonzero;stroke:none"
         id="path496"
         inkscape:connector-curvature="0" />
    </g>
    <g
       id="g498"
       transform="matrix(12.854032,0,0,-12.854032,459.29325,93.387931)">
      <path
         d="m 0,0 c 0.015,0.202 0.023,0.36 0.023,0.486 0,0.786 -0.476,1.247 -1.286,1.247 C -2.128,1.733 -2.747,1.115 -2.998,0 L 0,0 Z m 1.437,-5.76 c -0.932,-0.266 -1.822,-0.393 -2.775,-0.392 -3.04,0.002 -4.624,1.486 -4.624,4.332 0,3.32 2.016,5.764 4.752,5.764 2.239,0 3.71,-1.37 3.71,-3.515 0,-0.713 -0.098,-1.408 -0.334,-2.389 l -5.448,0 c -0.021,-0.149 -0.027,-0.214 -0.027,-0.303 0,-1.122 0.807,-1.693 2.385,-1.693 0.972,0 1.85,0.188 2.826,0.612 L 1.437,-5.76 Z"
         style="fill:#000066;fill-opacity:1;fill-rule:nonzero;stroke:none"
         id="path500"
         inkscape:connector-curvature="0" />
    </g>
    <g
       id="g502"
       transform="matrix(12.854032,0,0,-12.854032,869.26232,98.147831)">
      <path
         d="m 0,0 c 0,2.428 -1.484,4.318 -4.279,4.318 -3.221,0 -5.306,-2.298 -5.306,-5.69 0,-2.427 1.231,-4.41 4.28,-4.41 C -2.225,-5.782 0,-4.021 0,0 m -2.937,0.037 c 0,-2.187 -0.838,-3.486 -2.163,-3.486 -0.963,-0.016 -1.548,0.854 -1.548,2.15 0,1.541 0.852,3.282 2.227,3.282 1.106,0 1.484,-0.945 1.484,-1.946"
         style="fill:#000066;fill-opacity:1;fill-rule:nonzero;stroke:none"
         id="path504"
         inkscape:connector-curvature="0" />
    </g>
    <g
       id="g506"
       transform="matrix(12.854032,0,0,-12.854032,884.08693,77.98623)">
      <path
         d="m 0,0 c 0.15,0.833 0.284,1.646 0.372,2.517 l 2.663,0 -0.238,-1.573 0.032,0 c 0.831,1.073 1.688,1.793 3.187,1.793 1.655,0 2.539,-1.468 2.52,-3.354 C 8.53,-1.265 8.455,-1.726 8.276,-2.624 l -0.846,-4.495 -2.869,0 0.847,4.512 c 0.093,0.499 0.186,0.961 0.19,1.461 0.006,0.573 -0.303,1.146 -1.091,1.11 -1.199,0 -1.921,-1.221 -2.138,-2.645 l -0.848,-4.438 -2.869,0 L 0,0 Z"
         style="fill:#000066;fill-opacity:1;fill-rule:nonzero;stroke:none"
         id="path508"
         inkscape:connector-curvature="0" />
    </g>
    <g
       id="g510"
       transform="matrix(12.854032,0,0,-12.854032,1016.7945,45.635202)">
      <path
         d="m 0,0 2.869,0 -1.822,-9.636 -2.868,0 L 0,0 Z"
         style="fill:#000066;fill-opacity:1;fill-rule:nonzero;stroke:none"
         id="path512"
         inkscape:connector-curvature="0" />
    </g>
    <g
       id="g514"
       transform="matrix(12.854032,0,0,-12.854032,578.36282,167.6611)">
      <path
         d="m 0,0 c -0.568,-0.222 -1.326,-0.37 -2.431,-0.37 -2.401,0 -3.885,1.982 -3.885,4.41 0,3.17 2.148,5.691 5.306,5.691 0.695,0 1.753,-0.242 2.59,-0.649 L 1.067,6.724 c -0.575,0.355 -1.303,0.559 -1.935,0.559 -1.468,0 -2.512,-1.112 -2.512,-3.113 0,-1.149 0.759,-2.093 1.959,-2.093 0.711,0 1.216,0.128 1.833,0.425 L 0,0 Z"
         style="fill:#000066;fill-opacity:1;fill-rule:nonzero;stroke:none"
         id="path516"
         inkscape:connector-curvature="0" />
    </g>
    <g
       id="g518"
       transform="matrix(12.854032,0,0,-12.854032,1133.1967,167.6611)">
      <path
         d="m 0,0 c -0.568,-0.222 -1.327,-0.37 -2.433,-0.37 -2.4,0 -3.884,1.982 -3.884,4.41 0,3.17 2.147,5.691 5.307,5.691 0.694,0 1.752,-0.242 2.589,-0.649 L 1.065,6.724 c -0.575,0.355 -1.302,0.559 -1.934,0.559 -1.469,0 -2.512,-1.112 -2.512,-3.113 0,-1.149 0.76,-2.093 1.959,-2.093 0.711,0 1.216,0.128 1.832,0.425 L 0,0 Z"
         style="fill:#000066;fill-opacity:1;fill-rule:nonzero;stroke:none"
         id="path520"
         inkscape:connector-curvature="0" />
    </g>
    <g
       id="g522"
       transform="matrix(12.854032,0,0,-12.854032,683.63858,45.635202)">
      <path
         d="m 0,0 c -0.365,-2.98 -1.011,-6.002 -1.517,-8.988 l -0.122,-0.648 2.903,0 c 1.046,5.765 1.398,7.407 3.59,6.829 l 1.054,2.729 C 4.38,0.483 3.395,-0.318 2.503,-1.457 2.585,-0.945 2.735,-0.45 2.7,0 L 0,0 Z"
         style="fill:#000066;fill-opacity:1;fill-rule:nonzero;stroke:none"
         id="path524"
         inkscape:connector-curvature="0" />
    </g>
    <g
       id="g526"
       transform="matrix(12.854032,0,0,-12.854032,656.08601,141.89648)">
      <path
         d="m 0,0 c -1.192,-0.172 -1.738,0.162 -1.738,0.81 0,0.462 0.11,0.943 0.236,1.665 l 0.489,2.682 1.502,0 0.439,2.332 -1.484,0 0.428,2.303 -2.869,0 -1.379,-7.335 c -0.189,-1.019 -0.253,-1.5 -0.253,-1.981 0,-2.016 1.204,-2.848 2.654,-2.848 0.501,0 1.028,0.063 1.557,0.153 L 0,0 Z"
         style="fill:#000066;fill-opacity:1;fill-rule:nonzero;stroke:none"
         id="path528"
         inkscape:connector-curvature="0" />
    </g>
    <g
       id="g530"
       transform="matrix(12.854032,0,0,-12.854032,495.46707,-11.657791)">
      <path
         d="m 0,0 -1.569,0 0.036,0.746 c -0.479,-0.589 -1.118,-0.87 -1.986,-0.87 -1.026,0 -1.732,0.8 -1.732,1.966 0,1.752 1.226,2.774 3.327,2.774 0.216,0 0.49,-0.019 0.773,-0.055 0.058,0.238 0.074,0.339 0.074,0.467 0,0.477 -0.33,0.655 -1.215,0.655 -0.927,0.009 -1.691,-0.222 -2.006,-0.323 0.02,0.119 0.263,1.618 0.263,1.618 0.945,0.277 1.566,0.38 2.267,0.38 1.627,0 2.489,-0.729 2.487,-2.109 C 0.722,4.878 0.661,4.422 0.566,3.822 0.402,2.78 0.048,0.544 0,0 M -1.378,3.208 C -1.576,3.23 -1.664,3.237 -1.8,3.237 c -1.074,0 -1.617,-0.368 -1.617,-1.096 0,-0.449 0.264,-0.733 0.678,-0.733 0.772,0 1.328,0.735 1.361,1.8"
         style="fill:#000066;fill-opacity:1;fill-rule:nonzero;stroke:none"
         id="path532"
         inkscape:connector-curvature="0" />
    </g>
    <g
       id="g534"
       transform="matrix(12.854032,0,0,-12.854032,417.79663,-11.657791)">
      <path
         d="M 0,0 -1.895,0 -0.808,6.803 -3.232,0 -4.523,0 -4.682,6.765 -5.824,0 l -1.773,0 1.482,8.851 2.724,0 0.165,-4.954 1.662,4.954 3.029,0 L 0,0 Z"
         style="fill:#000066;fill-opacity:1;fill-rule:nonzero;stroke:none"
         id="path536"
         inkscape:connector-curvature="0" />
    </g>
    <g
       id="g538"
       transform="matrix(12.854032,0,0,-12.854032,879.09823,-11.657791)">
      <path
         d="m 0,0 -1.572,0 0.037,0.746 c -0.479,-0.589 -1.117,-0.87 -1.985,-0.87 -1.028,0 -1.731,0.8 -1.731,1.966 0,1.752 1.224,2.774 3.326,2.774 0.214,0 0.49,-0.019 0.772,-0.055 0.058,0.238 0.074,0.339 0.074,0.467 0,0.477 -0.329,0.655 -1.214,0.655 -0.927,0.009 -1.693,-0.222 -2.008,-0.323 0.022,0.119 0.266,1.618 0.266,1.618 0.943,0.277 1.567,0.38 2.266,0.38 1.628,0 2.488,-0.729 2.486,-2.109 C 0.722,4.878 0.66,4.422 0.565,3.822 0.4,2.78 0.047,0.544 0,0 m -1.38,3.208 c -0.199,0.022 -0.285,0.029 -0.421,0.029 -1.075,0 -1.617,-0.368 -1.617,-1.096 0,-0.449 0.263,-0.733 0.678,-0.733 0.771,0 1.327,0.735 1.36,1.8"
         style="fill:#000066;fill-opacity:1;fill-rule:nonzero;stroke:none"
         id="path540"
         inkscape:connector-curvature="0" />
    </g>
    <g
       id="g542"
       transform="matrix(12.854032,0,0,-12.854032,603.68784,-13.067826)">
      <path
         d="m 0,0 c -0.518,-0.164 -0.923,-0.233 -1.361,-0.233 -0.969,0 -1.496,0.555 -1.496,1.58 -0.014,0.319 0.138,1.155 0.259,1.919 0.11,0.672 0.822,4.912 0.822,4.912 l 1.883,0 -0.22,-1.09 1.137,0 -0.256,-1.729 -1.142,0 c -0.219,-1.37 -0.531,-3.074 -0.534,-3.3 0,-0.372 0.198,-0.534 0.649,-0.534 0.216,0 0.382,0.023 0.511,0.068 L 0,0 Z"
         style="fill:#000066;fill-opacity:1;fill-rule:nonzero;stroke:none"
         id="path544"
         inkscape:connector-curvature="0" />
    </g>
    <g
       id="g546"
       transform="matrix(12.854032,0,0,-12.854032,664.29964,-68.661516)">
      <path
         d="M 0,0 C 0.012,0.15 0.2,1.285 -0.876,1.285 -1.475,1.285 -1.905,0.828 -2.078,0 L 0,0 Z m 1.059,-4.267 c -0.648,-0.197 -1.27,-0.294 -1.932,-0.291 -2.108,10e-4 -3.208,1.102 -3.208,3.211 0,2.459 1.398,4.27 3.296,4.27 1.553,0 2.544,-1.013 2.544,-2.602 0,-0.53 -0.067,-1.045 -0.232,-1.772 l -3.75,0 c -0.127,-1.044 0.542,-1.479 1.638,-1.479 0.673,0 1.281,0.139 1.957,0.453 l -0.313,-1.79 z"
         style="fill:#000066;fill-opacity:1;fill-rule:nonzero;stroke:none"
         id="path548"
         inkscape:connector-curvature="0" />
    </g>
    <g
       id="g550"
       transform="matrix(12.854032,0,0,-12.854032,510.08087,-74.930479)">
      <path
         d="m 0,0 c 0,-0.911 0.442,-1.538 1.443,-2.01 0.766,-0.36 0.885,-0.467 0.885,-0.794 0,-0.448 -0.338,-0.651 -1.087,-0.651 -0.566,0 -1.091,0.088 -1.698,0.284 0,0 -0.248,-1.588 -0.26,-1.663 0.431,-0.093 0.814,-0.18 1.971,-0.212 1.999,0 2.922,0.76 2.922,2.405 0,0.989 -0.386,1.57 -1.335,2.007 -0.794,0.364 -0.886,0.446 -0.886,0.781 0,0.389 0.316,0.588 0.927,0.588 0.372,0 0.88,-0.039 1.362,-0.108 l 0.27,1.67 C 4.022,2.375 3.279,2.436 2.846,2.436 0.727,2.436 -0.006,1.33 0,0"
         style="fill:#000066;fill-opacity:1;fill-rule:nonzero;stroke:none"
         id="path552"
         inkscape:connector-curvature="0" />
    </g>
    <g
       id="g554"
       transform="matrix(12.854032,0,0,-12.854032,796.33112,-103.80578)">
      <path
         d="M 0,0 C 0.526,0 1.018,-0.136 1.693,-0.478 L 2.004,1.444 C 1.725,1.552 0.749,2.192 -0.078,2.192 -1.347,2.192 -2.419,1.562 -3.172,0.526 -4.272,0.89 -4.724,0.154 -5.278,-0.58 L -5.77,-0.694 c 0.037,0.24 0.071,0.481 0.06,0.723 l -1.741,0 c -0.237,-2.228 -0.657,-4.485 -0.988,-6.714 l -0.085,-0.484 1.894,0 c 0.316,2.056 0.49,3.371 0.594,4.263 l 0.714,0.395 c 0.107,0.398 0.441,0.531 1.11,0.514 -0.087,-0.469 -0.135,-0.963 -0.135,-1.475 0,-2.355 1.274,-3.82 3.311,-3.82 0.526,0 0.977,0.068 1.676,0.258 l 0.331,2.017 c -0.626,-0.308 -1.142,-0.454 -1.609,-0.454 -1.101,0 -1.767,0.814 -1.767,2.157 C -2.405,-1.365 -1.415,0 0,0"
         style="fill:#000066;fill-opacity:1;fill-rule:nonzero;stroke:none"
         id="path556"
         inkscape:connector-curvature="0" />
    </g>
    <g
       id="g558"
       transform="matrix(12.854032,0,0,-12.854032,972.04193,-33.030241)">
      <path
         d="m 0,0 c -0.643,0 -0.971,0.478 -0.971,1.42 0,1.413 0.612,2.417 1.47,2.417 0.651,0 1.004,-0.495 1.004,-1.41 C 1.503,1 0.881,0 0,0 M 2.37,7.188 1.949,4.631 C 1.431,5.313 0.876,5.807 0.14,5.807 -0.815,5.807 -1.685,5.082 -2.256,4.014 -3.05,4.18 -3.868,4.459 -3.868,4.459 l 0,-0.006 c 0.063,0.595 0.089,0.958 0.083,1.082 l -1.74,0 C -5.761,3.307 -6.184,1.051 -6.513,-1.179 l -0.088,-0.484 1.897,0 c 0.255,1.661 0.451,3.042 0.595,4.137 0.648,0.585 0.971,1.095 1.625,1.061 C -2.772,2.833 -2.941,2.028 -2.941,1.2 c 0,-1.799 0.909,-2.986 2.287,-2.986 0.693,0 1.226,0.238 1.745,0.793 l -0.087,-0.669 1.79,0 1.444,8.85 -1.868,0 z"
         style="fill:#000066;fill-opacity:1;fill-rule:nonzero;stroke:none"
         id="path560"
         inkscape:connector-curvature="0" />
    </g>
    <g
       id="g562"
       transform="matrix(12.854032,0,0,-12.854032,424.80331,-18.41387)">
      <path
         d="M 0,0 -1.894,0 -0.808,6.803 -3.232,0 -4.523,0 -4.683,6.764 -5.824,0 l -1.772,0 1.481,8.849 2.724,0 0.076,-5.478 1.838,5.478 2.943,0 L 0,0 Z"
         style="fill:#ffffff;fill-opacity:1;fill-rule:nonzero;stroke:none"
         id="path564"
         inkscape:connector-curvature="0" />
    </g>
    <g
       id="g566"
       transform="matrix(12.854032,0,0,-12.854032,502.48413,-18.41387)">
      <path
         d="m 0,0 -1.569,0 0.035,0.744 c -0.478,-0.588 -1.118,-0.869 -1.985,-0.869 -1.027,0 -1.731,0.802 -1.731,1.967 0,1.753 1.224,2.774 3.327,2.774 0.214,0 0.489,-0.021 0.772,-0.056 0.059,0.238 0.074,0.339 0.074,0.468 0,0.477 -0.33,0.653 -1.216,0.653 -0.926,0.011 -1.691,-0.219 -2.005,-0.323 0.02,0.12 0.263,1.619 0.263,1.619 0.944,0.278 1.567,0.382 2.267,0.382 1.626,0 2.489,-0.731 2.487,-2.111 C 0.722,4.878 0.661,4.42 0.565,3.822 0.401,2.78 0.048,0.543 0,0 m -1.378,3.206 c -0.199,0.024 -0.287,0.03 -0.422,0.03 -1.074,0 -1.618,-0.369 -1.618,-1.095 0,-0.448 0.265,-0.735 0.68,-0.735 0.771,0 1.327,0.735 1.36,1.8"
         style="fill:#ffffff;fill-opacity:1;fill-rule:nonzero;stroke:none"
         id="path568"
         inkscape:connector-curvature="0" />
    </g>
    <g
       id="g570"
       transform="matrix(12.854032,0,0,-12.854032,829.07034,-129.11279)">
      <path
         d="m 0,0 -0.309,-1.922 c -0.675,0.341 -1.166,0.479 -1.693,0.479 -1.413,0 -2.406,-1.368 -2.406,-3.316 0,-1.344 0.667,-2.156 1.769,-2.156 0.467,0 0.982,0.145 1.609,0.454 l -0.334,-2.017 c -0.697,-0.19 -1.148,-0.259 -1.674,-0.259 -2.039,0 -3.309,1.466 -3.309,3.821 0,3.165 1.756,5.375 4.267,5.375 0.827,0 1.804,-0.35 2.08,-0.459"
         style="fill:#ffffff;fill-opacity:1;fill-rule:nonzero;stroke:none"
         id="path572"
         inkscape:connector-curvature="0" />
    </g>
    <g
       id="g574"
       transform="matrix(12.854032,0,0,-12.854032,886.10368,-18.41387)">
      <path
         d="m 0,0 -1.57,0 0.035,0.744 c -0.479,-0.588 -1.117,-0.869 -1.985,-0.869 -1.027,0 -1.731,0.802 -1.731,1.967 0,1.753 1.224,2.774 3.326,2.774 0.216,0 0.49,-0.021 0.772,-0.056 0.058,0.238 0.074,0.339 0.074,0.468 0,0.477 -0.329,0.653 -1.214,0.653 -0.927,0.011 -1.691,-0.219 -2.006,-0.323 0.02,0.12 0.264,1.619 0.264,1.619 0.943,0.278 1.565,0.382 2.266,0.382 1.626,0 2.488,-0.731 2.486,-2.111 C 0.722,4.878 0.66,4.42 0.565,3.822 0.4,2.78 0.047,0.543 0,0 m -1.38,3.206 c -0.198,0.024 -0.285,0.03 -0.421,0.03 -1.073,0 -1.617,-0.369 -1.617,-1.095 0,-0.448 0.264,-0.735 0.678,-0.735 0.771,0 1.329,0.735 1.36,1.8"
         style="fill:#ffffff;fill-opacity:1;fill-rule:nonzero;stroke:none"
         id="path576"
         inkscape:connector-curvature="0" />
    </g>
    <g
       id="g578"
       transform="matrix(12.854032,0,0,-12.854032,610.7048,-19.814959)">
      <path
         d="m 0,0 c -0.518,-0.163 -0.923,-0.234 -1.361,-0.234 -0.967,0 -1.497,0.556 -1.497,1.581 -0.013,0.319 0.139,1.154 0.26,1.918 0.109,0.673 0.821,4.913 0.821,4.913 l 1.883,0 -0.22,-1.09 0.967,0 -0.258,-1.73 -0.969,0 C -0.593,3.989 -0.906,2.284 -0.909,2.059 c 0,-0.372 0.199,-0.534 0.65,-0.534 0.215,0 0.381,0.022 0.51,0.067 L 0,0 Z"
         style="fill:#ffffff;fill-opacity:1;fill-rule:nonzero;stroke:none"
         id="path580"
         inkscape:connector-curvature="0" />
    </g>
    <g
       id="g582"
       transform="matrix(12.854032,0,0,-12.854032,671.31547,-75.417698)">
      <path
         d="M 0,0 C 0.011,0.151 0.2,1.285 -0.876,1.285 -1.476,1.285 -1.904,0.826 -2.079,0 L 0,0 Z m 1.059,-4.269 c -0.647,-0.197 -1.273,-0.292 -1.932,-0.291 -2.11,0.002 -3.207,1.103 -3.207,3.211 0,2.461 1.397,4.273 3.294,4.273 1.554,0 2.545,-1.014 2.545,-2.606 0,-0.528 -0.069,-1.043 -0.232,-1.77 l -3.75,0 c -0.127,-1.045 0.541,-1.479 1.637,-1.479 0.673,0 1.281,0.139 1.959,0.454 L 1.059,-4.269 Z"
         style="fill:#ffffff;fill-opacity:1;fill-rule:nonzero;stroke:none"
         id="path584"
         inkscape:connector-curvature="0" />
    </g>
    <g
       id="g586"
       transform="matrix(12.854032,0,0,-12.854032,517.07603,-81.677509)">
      <path
         d="M 0,0 C 0,-0.911 0.442,-1.538 1.443,-2.009 2.211,-2.37 2.33,-2.477 2.33,-2.804 c 0,-0.449 -0.339,-0.651 -1.088,-0.651 -0.566,0 -1.092,0.087 -1.698,0.283 0,0 -0.249,-1.586 -0.26,-1.662 0.43,-0.093 0.814,-0.18 1.971,-0.213 1.999,0 2.923,0.761 2.923,2.406 0,0.99 -0.387,1.57 -1.336,2.006 -0.794,0.364 -0.886,0.446 -0.886,0.782 0,0.389 0.316,0.589 0.928,0.589 0.371,0 0.88,-0.041 1.361,-0.108 l 0.27,1.669 C 4.024,2.374 3.281,2.437 2.847,2.437 0.728,2.437 -0.006,1.33 0,0"
         style="fill:#ffffff;fill-opacity:1;fill-rule:nonzero;stroke:none"
         id="path588"
         inkscape:connector-curvature="0" />
    </g>
    <g
       id="g590"
       transform="matrix(12.854032,0,0,-12.854032,979.04738,-39.786218)">
      <path
         d="m 0,0 c 0.883,0 1.503,1 1.503,2.425 0,0.914 -0.354,1.411 -1.004,1.411 -0.86,0 -1.47,-1.001 -1.47,-2.418 C -0.971,0.476 -0.645,0 0,0 m 2.796,-1.663 -1.792,0 0.089,0.67 c -0.521,-0.555 -1.052,-0.795 -1.749,-0.795 -1.375,0 -2.285,1.187 -2.285,2.987 0,2.394 1.411,4.412 3.082,4.412 0.735,0 1.291,-0.299 1.808,-0.981 l 0.419,2.557 1.871,0 -1.443,-8.85 z"
         style="fill:#ffffff;fill-opacity:1;fill-rule:nonzero;stroke:none"
         id="path592"
         inkscape:connector-curvature="0" />
    </g>
    <g
       id="g594"
       transform="matrix(12.854032,0,0,-12.854032,908.01343,-110.92948)">
      <path
         d="m 0,0 c -0.235,-2.228 -0.656,-4.485 -0.987,-6.714 l -0.086,-0.483 1.895,0 c 0.678,4.401 0.841,5.261 1.904,5.153 0.169,0.901 0.484,1.69 0.718,2.087 C 2.653,0.209 2.209,-0.24 1.628,-1.091 1.673,-0.723 1.758,-0.365 1.741,0 L 0,0 Z"
         style="fill:#ffffff;fill-opacity:1;fill-rule:nonzero;stroke:none"
         id="path596"
         inkscape:connector-curvature="0" />
    </g>
    <g
       id="g598"
       transform="matrix(12.854032,0,0,-12.854032,707.58174,-110.92948)">
      <path
         d="m 0,0 c -0.239,-2.228 -0.659,-4.485 -0.99,-6.714 l -0.085,-0.483 1.895,0 c 0.678,4.401 0.841,5.261 1.902,5.153 0.17,0.901 0.487,1.69 0.721,2.087 C 2.65,0.209 2.206,-0.24 1.626,-1.091 1.672,-0.723 1.756,-0.365 1.74,0 L 0,0 Z"
         style="fill:#ffffff;fill-opacity:1;fill-rule:nonzero;stroke:none"
         id="path600"
         inkscape:connector-curvature="0" />
    </g>
    <g
       id="g602"
       transform="matrix(12.854032,0,0,-12.854032,1031.9276,-26.085156)">
      <path
         d="m 0,0 0.065,0 c 0.024,0 0.05,-0.002 0.071,0.009 0.018,0.012 0.029,0.037 0.029,0.058 0,0.019 -0.013,0.04 -0.027,0.05 C 0.117,0.129 0.085,0.126 0.062,0.126 L 0,0.126 0,0 Z m 0,-0.28 -0.114,0 0,0.494 0.209,0 c 0.044,0 0.087,-0.001 0.127,-0.025 0.039,-0.026 0.062,-0.074 0.062,-0.123 0,-0.057 -0.032,-0.109 -0.085,-0.128 l 0.091,-0.218 -0.128,0 -0.076,0.196 -0.086,0 0,-0.196 z m 0.076,-0.182 c 0.238,0 0.43,0.192 0.43,0.429 0,0.236 -0.192,0.428 -0.43,0.428 -0.236,0 -0.428,-0.192 -0.428,-0.428 0,-0.237 0.192,-0.429 0.428,-0.429 m -0.562,0.429 c 0,0.312 0.252,0.563 0.562,0.563 0.314,0 0.564,-0.251 0.564,-0.563 0,-0.311 -0.25,-0.564 -0.564,-0.564 -0.31,0 -0.562,0.253 -0.562,0.564"
         style="fill:#ffffff;fill-opacity:1;fill-rule:nonzero;stroke:none"
         id="path604"
         inkscape:connector-curvature="0" />
    </g>
    <g
       id="g606"
       transform="matrix(12.854032,0,0,-12.854032,1128.2377,227.65467)">
      <path
         d="m 0,0 -0.305,0 0,0.166 0.791,0 0,-0.166 -0.304,0 0,-0.824 L 0,-0.824 0,0 Z"
         style="fill:#ff9900;fill-opacity:1;fill-rule:nonzero;stroke:none"
         id="path608"
         inkscape:connector-curvature="0" />
    </g>
    <g
       id="g610"
       transform="matrix(12.854032,0,0,-12.854032,1137.4785,225.51833)">
      <path
         d="M 0,0 0.282,0 0.54,-0.669 0.795,0 l 0.282,0 0,-0.99 -0.182,0 0,0.757 -0.004,0 -0.278,-0.757 -0.148,0 -0.279,0.757 -0.004,0 0,-0.757 L 0,-0.99 0,0 Z"
         style="fill:#ff9900;fill-opacity:1;fill-rule:nonzero;stroke:none"
         id="path612"
         inkscape:connector-curvature="0" />
    </g>
  </g>
</svg>
