<svg width="40" height="40" viewBox="0 0 40 40" fill="#fff" xmlns="http://www.w3.org/2000/svg">
<path d="M38.26 27.7805V33.0167C38.262 33.5028 38.1623 33.9839 37.9671 34.4293C37.772 34.8747 37.4858 35.2745 37.1269 35.6031C36.768 35.9317 36.3443 36.1819 35.8829 36.3376C35.4215 36.4934 34.9326 36.5512 34.4475 36.5075C29.066 35.9239 23.8967 34.0886 19.3549 31.1491C15.1293 28.4693 11.5468 24.8939 8.86171 20.6767C5.9061 16.1233 4.06676 10.9392 3.49271 5.54414C3.44901 5.06148 3.50648 4.57503 3.66148 4.11576C3.81647 3.65648 4.06559 3.23444 4.39296 2.87652C4.72034 2.51859 5.11881 2.23262 5.563 2.03681C6.00718 1.841 6.48735 1.73964 6.97294 1.73918H12.2195C13.0683 1.73085 13.8911 2.0308 14.5346 2.58314C15.1781 3.13548 15.5985 3.90251 15.7172 4.74126C15.9387 6.41696 16.3494 8.06227 16.9414 9.64582C17.1767 10.2705 17.2277 10.9495 17.0882 11.6022C16.9487 12.2549 16.6247 12.8541 16.1545 13.3286L13.9334 15.5453C16.423 19.9149 20.0482 23.533 24.4266 26.0176L26.6476 23.801C27.1231 23.3317 27.7234 23.0083 28.3774 22.8691C29.0315 22.7299 29.7118 22.7807 30.3377 23.0155C31.9244 23.6065 33.573 24.0163 35.252 24.2373C36.1015 24.3569 36.8774 24.784 37.432 25.4373C37.9866 26.0906 38.2813 26.9245 38.26 27.7805Z" stroke="#313131" stroke-width="2" stroke-linecap="round" stroke-linejoin="round"/>
</svg>
