<svg width="1000" height="128" viewBox="0 0 1000 128" fill="none" xmlns="http://www.w3.org/2000/svg">
<rect width="1" height="120" fill="#D2AC47"/>
<rect x="1" width="998" height="1" fill="#D2AC47"/>
<rect x="999" width="1" height="120" fill="#D2AC47"/>
<path d="M489.832 60.416C489.149 60.416 488.68 60.2027 488.424 59.776C488.168 59.264 488.04 58.6667 488.04 57.984V39.68C488.04 37.5467 488.424 35.9253 489.192 34.816C490.045 33.7067 491.027 32.9813 492.136 32.64C493.331 32.2987 494.397 32.128 495.336 32.128C495.933 32.128 496.403 32.1707 496.744 32.256C497.085 32.256 497.427 32.2987 497.768 32.384V35.968C496.573 35.968 495.763 36.2667 495.336 36.864C494.995 37.376 494.824 38.0587 494.824 38.912V45.312H495.848C496.531 45.312 497.085 45.5253 497.512 45.952C497.939 46.2933 498.152 46.8907 498.152 47.744V57.984C498.152 59.6053 497.384 60.416 495.848 60.416H489.832ZM505.064 60.416C504.381 60.416 503.912 60.2027 503.656 59.776C503.4 59.264 503.272 58.6667 503.272 57.984V39.68C503.272 37.5467 503.656 35.9253 504.424 34.816C505.277 33.7067 506.259 32.9813 507.368 32.64C508.563 32.2987 509.629 32.128 510.568 32.128C511.165 32.128 511.635 32.1707 511.976 32.256C512.317 32.256 512.659 32.2987 513 32.384V35.968C511.805 35.968 510.995 36.2667 510.568 36.864C510.227 37.376 510.056 38.0587 510.056 38.912V45.312H511.08C511.763 45.312 512.317 45.5253 512.744 45.952C513.171 46.2933 513.384 46.8907 513.384 47.744V57.984C513.384 59.6053 512.616 60.416 511.08 60.416H505.064Z" fill="black"/>
</svg>
