<svg width="1143" height="1135" viewBox="0 0 1143 1135" fill="none" xmlns="http://www.w3.org/2000/svg">
<path d="M940.579 936.759C885.467 984.397 794.263 986.583 691.017 951.123C587.832 915.683 472.935 842.73 370.835 740.629C268.734 638.529 198.832 526.683 168.32 428.426C137.791 330.11 146.77 245.7 201.882 198.062C256.994 150.424 348.198 148.238 451.444 183.698C554.63 219.138 669.526 292.091 771.627 394.192C873.727 496.292 943.63 608.138 974.141 706.395C1004.67 804.71 995.691 889.121 940.579 936.759Z" stroke="#D2AC47" stroke-width="2"/>
<path d="M859.07 1003.28C795.53 1038.91 705.738 1022.77 611.693 967.344C517.702 911.945 419.756 817.446 340.187 696.956C260.619 576.466 214.548 452.881 204.346 350.502C194.138 248.064 219.851 167.165 283.391 131.538C346.932 95.9103 436.724 112.046 530.769 167.477C624.76 222.875 722.706 317.374 802.274 437.864C881.843 558.354 927.914 681.939 938.116 784.318C948.324 886.757 922.611 967.656 859.07 1003.28Z" stroke="#D2AC47" stroke-width="2"/>
</svg>
